<?xml version="1.0" encoding="UTF-8" standalone="no"?><svg width="180" height="27" viewBox="0 0 180 27" xmlns="http://www.w3.org/2000/svg"><title>Logo</title><g fill="none" fill-rule="evenodd"><path d="M115.54 26.905h64.384V.025H115.54v26.88zM179.227.715v25.5h-62.994V.716h62.994zM.084.025H112.76v26.88H.083V.025z" fill="#003F63"/><path d="M179.228.714v25.502h-62.994V.714h62.994M38.99 15.285c0 2.637-1.417 3.946-4.624 3.946h-5.053V9.337h4.878c3.888 0 4.8 1.868 4.8 3.908v2.04zm2.08-.077v-1.694c0-5.41-4.294-5.622-7.19-5.622h-6.646v12.803h7.23c5.674 0 6.607-3.042 6.607-5.487zM52.323 17.538c0 .75-.06 1.424-.914 1.732-.506.192-1.225.25-2.43.25s-1.924-.116-2.35-.385c-.293-.173-.41-.462-.41-1.078 0-.77.195-1.213.584-1.386.37-.172.836-.21 2.312-.21h3.207v1.078zm1.963 3.157V15.67c0-.944 0-1.617-.077-2.098-.1-.5-.274-.848-.682-1.156-.933-.73-3.246-.75-4.392-.75-.855 0-3.207.096-4.062.828-.292.25-.37.54-.37.885 0 .23.04.538.06.943h1.903c.04-.232.078-.79.292-1 .25-.252.7-.348 2-.348 1.497 0 2.547.058 2.974.288.408.232.39.713.39 1.08v.884H47.93c-1.185 0-2.545.02-3.304 1.04-.33.442-.485 1-.485 1.732 0 2.117 1.322 2.83 4.704 2.83 1.768 0 2.915-.27 3.615-.867l.174.732h1.652zM66.063 20.695v-4.89c0-1.694-.078-2.06-.487-2.368-.388-.29-1.165-.462-2.35-.462-1.05 0-2.12.135-3.13.404v7.315h-1.943v-8.952h1.75l.134.635c.39-.212.68-.366 1.09-.482.64-.192 1.457-.288 2.545-.288 1.244 0 2.196.192 2.934.52.72.308 1.108.885 1.264 1.56.097.462.136.865.136 1.886v5.12h-1.943M80.443 20.156c-.893.442-2.35.635-4.256.635-1.32 0-2.41-.095-3.264-.307-.914-.212-1.36-.635-1.42-1.405-.02-.405 0-.77.06-1.252h1.865c.058.462.058.597.077.693.078.422.04.654.545.808.485.153 1.263.212 2.254.212 1.244 0 2.1-.136 2.682-.386.407-.173.602-.5.602-1.116 0-.712-.155-1-.893-1.117-.234-.037-.467-.037-.7-.056-.136-.02-.564-.02-1.244-.04-.33 0-.698-.018-1.146-.037-1.924-.096-3.984-.173-3.984-2.426 0-2.02 1.264-2.733 4.704-2.733.874 0 1.963.058 2.604.135.757.097 1.32.23 1.73.462.446.25.6.654.6 1.367 0 .193 0 .386-.037.694h-1.884l-.078-.405c-.097-.482-.136-.578-.29-.694-.273-.21-1.11-.308-2.275-.308-1.186 0-1.846.058-2.39.25-.506.174-.72.5-.72 1.136 0 .444.156.77.37.905.505.307 3.167.27 4.08.288.973.02 1.614.096 2.178.29.992.345 1.38.98 1.38 2.29 0 1.06-.35 1.713-1.147 2.118M92.395 20.695L87.73 16.46h-.7v4.235H85.09V7.892h1.943v7.296h.7l3.87-3.445h2.272l-4.51 3.946 5.618 5.005h-2.585M104.62 15.343h-6.24c.078-1.117.312-1.618.758-1.945.448-.327 1.283-.48 2.507-.48 1.692 0 2.488.365 2.78 1.135.117.327.194.636.194 1.29zm1.788 2.56h-1.924c-.06.27-.098.963-.35 1.213-.292.288-.875.424-2.45.424-1.534 0-2.39-.212-2.818-.635-.33-.328-.524-1.002-.524-2.06v-.23h8.124c.02-.445.038-.56.038-.907 0-1.482-.214-2.31-.855-2.945-.74-.75-2.158-1.117-4.102-1.117-2.487 0-4.022.56-4.663 1.79-.37.714-.584 1.714-.584 2.966 0 1.944.526 3.176 1.673 3.792.72.385 1.963.597 3.536.616 1.32 0 2.37-.058 3.537-.404 1.127-.347 1.4-.982 1.4-1.5 0-.137 0-.58-.04-1.003z" fill="#FFF"/><path d="M132.06 11.127c0 1.886-1.067 2.27-3.283 2.27h-4.897v-4.06h5.15c1.963 0 3.03.172 3.03 1.79zm2.566 5.968c0-1.58-.913-2.753-3.09-3.08v-.04c1.69-.442 2.605-1.308 2.605-2.675 0-2.253-1.108-3.408-4.256-3.408H121.8v12.803h8.415c2.837 0 4.41-1.27 4.41-3.6zm-2.08.134c0 1.828-1.3 2-3.322 2h-5.344v-4.388h5.596c2.39 0 3.07.77 3.07 2.387zM145.198 17.538c0 .75-.058 1.424-.914 1.732-.504.192-1.223.25-2.43.25-1.203 0-1.923-.116-2.35-.385-.29-.173-.408-.462-.408-1.078 0-.77.194-1.213.583-1.386.368-.172.834-.21 2.312-.21h3.206v1.078zm1.963 3.157V15.67c0-.944 0-1.617-.077-2.098-.097-.5-.272-.848-.68-1.156-.932-.73-3.245-.75-4.392-.75-.854 0-3.206.096-4.06.828-.292.25-.37.54-.37.885 0 .23.04.538.058.943h1.905c.04-.232.078-.79.29-1 .254-.252.7-.348 2.003-.348 1.496 0 2.547.058 2.974.288.407.232.388.713.388 1.08v.884h-4.392c-1.185 0-2.546.02-3.304 1.04-.33.442-.485 1-.485 1.732 0 2.117 1.322 2.83 4.703 2.83 1.768 0 2.916-.27 3.614-.867l.175.732h1.65zM158.453 20.695v-4.89c0-1.694-.078-2.06-.486-2.368-.39-.29-1.166-.462-2.352-.462-1.05 0-2.118.135-3.13.404v7.315h-1.942v-8.952h1.748l.138.635c.39-.212.68-.366 1.088-.482.64-.192 1.457-.288 2.546-.288 1.243 0 2.196.192 2.935.52.718.308 1.107.885 1.262 1.56.097.462.136.865.136 1.886v5.12h-1.943M171.084 20.695l-4.664-4.236h-.7v4.235h-1.943V7.892h1.943v7.296h.7l3.868-3.445h2.273l-4.507 3.946 5.616 5.005h-2.586" fill="#003F63"/></g></svg>